G04*
G04 #@! TF.GenerationSoftware,Altium Limited,Altium Designer,23.1.1 (15)*
G04*
G04 Layer_Color=128*
%FSLAX25Y25*%
%MOIN*%
G70*
G04*
G04 #@! TF.SameCoordinates,03F7D1C1-C5FB-48E8-AD4B-F654CDEC49F4*
G04*
G04*
G04 #@! TF.FilePolarity,Positive*
G04*
G01*
G75*
%ADD87C,0.00500*%
D87*
X88983Y24262D02*
X91542D01*
X90262Y22983D02*
Y25542D01*
X66227Y24262D02*
X68786D01*
X67506Y22983D02*
Y25542D01*
X94711Y9893D02*
X97073D01*
X95892Y8712D02*
Y11074D01*
X60695Y9893D02*
X63057D01*
X61876Y8711D02*
Y11074D01*
X94712Y26231D02*
X97074D01*
X95893Y25050D02*
Y27412D01*
X60695Y26230D02*
X63058D01*
X61877Y25049D02*
Y27412D01*
X64593Y128375D02*
X67152D01*
X65872Y127096D02*
Y129655D01*
X59593Y128375D02*
X62152D01*
X60872Y127096D02*
Y129655D01*
X54593Y128375D02*
X57152D01*
X55872Y127096D02*
Y129655D01*
X69593Y128375D02*
X72152D01*
X70872Y127096D02*
Y129655D01*
X125302Y7062D02*
X130022D01*
X127662Y4702D02*
Y9422D01*
X125302Y17062D02*
X130022D01*
X127662Y14702D02*
Y19422D01*
X125302Y27062D02*
X130022D01*
X127662Y24702D02*
Y29422D01*
X125302Y37062D02*
X130022D01*
X127662Y34702D02*
Y39422D01*
X125302Y47062D02*
X130022D01*
X127662Y44702D02*
Y49422D01*
X35590Y107762D02*
X38150D01*
X36870Y106482D02*
Y109042D01*
X40590Y107762D02*
X43150D01*
X41870Y106482D02*
Y109042D01*
X35590Y102762D02*
X38150D01*
X36870Y101482D02*
Y104042D01*
X40590Y102762D02*
X43150D01*
X41870Y101482D02*
Y104042D01*
X35590Y97762D02*
X38150D01*
X36870Y96482D02*
Y99042D01*
X40590Y97762D02*
X43150D01*
X41870Y96482D02*
Y99042D01*
X35590Y92762D02*
X38150D01*
X36870Y91482D02*
Y94042D01*
X40590Y92762D02*
X43150D01*
X41870Y91482D02*
Y94042D01*
X35590Y87762D02*
X38150D01*
X36870Y86482D02*
Y89042D01*
X40590Y87762D02*
X43150D01*
X41870Y86482D02*
Y89042D01*
X114282Y107762D02*
X116842D01*
X115562Y106482D02*
Y109042D01*
X119282Y107762D02*
X121842D01*
X120562Y106482D02*
Y109042D01*
X114282Y102762D02*
X116842D01*
X115562Y101482D02*
Y104042D01*
X119282Y102762D02*
X121842D01*
X120562Y101482D02*
Y104042D01*
X114282Y97762D02*
X116842D01*
X115562Y96482D02*
Y99042D01*
X119282Y97762D02*
X121842D01*
X120562Y96482D02*
Y99042D01*
X114282Y92762D02*
X116842D01*
X115562Y91482D02*
Y94042D01*
X119282Y92762D02*
X121842D01*
X120562Y91482D02*
Y94042D01*
X114282Y87762D02*
X116842D01*
X115562Y86482D02*
Y89042D01*
X119282Y87762D02*
X121842D01*
X120562Y86482D02*
Y89042D01*
X18281Y166462D02*
X20643D01*
X19462Y165281D02*
Y167643D01*
X18281Y161462D02*
X20643D01*
X19462Y160281D02*
Y162644D01*
X18281Y156462D02*
X20643D01*
X19462Y155281D02*
Y157643D01*
X18281Y151462D02*
X20643D01*
X19462Y150281D02*
Y152644D01*
X104560Y100212D02*
X105741D01*
X105151Y99622D02*
Y100803D01*
X101556Y98242D02*
X102737D01*
X102147Y97652D02*
Y98833D01*
X135073Y69462D02*
X136255D01*
X135664Y68872D02*
Y70053D01*
X133593Y87812D02*
X134774D01*
X134183Y87221D02*
Y88402D01*
X118659Y82297D02*
X119841D01*
X119250Y81706D02*
Y82887D01*
X143472Y59662D02*
X144653D01*
X144062Y59072D02*
Y60253D01*
X111614Y60662D02*
X112795D01*
X112205Y60072D02*
Y61253D01*
X133672Y60662D02*
X134853D01*
X134262Y60072D02*
Y61253D01*
X110902Y72225D02*
X112083D01*
X111492Y71634D02*
Y72815D01*
X92272Y73594D02*
X93453D01*
X92862Y73004D02*
Y74185D01*
X99272Y75862D02*
X100453D01*
X99862Y75272D02*
Y76453D01*
X96072Y73862D02*
X97253D01*
X96662Y73272D02*
Y74453D01*
X101653Y112062D02*
X102834D01*
X102243Y111472D02*
Y112653D01*
X65472Y120412D02*
X66653D01*
X66062Y119822D02*
Y121003D01*
X61472Y135433D02*
X62653D01*
X62062Y134843D02*
Y136024D01*
X56472Y135433D02*
X57653D01*
X57062Y134843D02*
Y136024D01*
X68227Y134262D02*
X69408D01*
X68817Y133672D02*
Y134853D01*
X78383Y78363D02*
X79564D01*
X78973Y77772D02*
Y78953D01*
X90291Y80862D02*
X91472D01*
X90882Y80272D02*
Y81453D01*
X93878Y83497D02*
X95059D01*
X94468Y82906D02*
Y84087D01*
X59072Y94262D02*
X60253D01*
X59662Y93672D02*
Y94853D01*
X90672Y134438D02*
X91853D01*
X91262Y133847D02*
Y135028D01*
X86072Y134262D02*
X87253D01*
X86662Y133672D02*
Y134853D01*
X70872Y136262D02*
X72053D01*
X71462Y135672D02*
Y136853D01*
X102071Y83462D02*
X103252D01*
X102662Y82872D02*
Y84053D01*
X76258Y124941D02*
X77439D01*
X76849Y124350D02*
Y125531D01*
X41577Y117160D02*
X42758D01*
X42167Y116570D02*
Y117751D01*
X41872Y113132D02*
X43053D01*
X42462Y112542D02*
Y113723D01*
X38672Y115062D02*
X39853D01*
X39262Y114472D02*
Y115653D01*
X94732Y61416D02*
X95913D01*
X95323Y60825D02*
Y62006D01*
X52072Y89666D02*
X53253D01*
X52662Y89075D02*
Y90256D01*
X48912Y92662D02*
X50093D01*
X49502Y92072D02*
Y93253D01*
X45445Y90462D02*
X46626D01*
X46036Y89872D02*
Y91053D01*
X45526Y95382D02*
X46707D01*
X46116Y94792D02*
Y95973D01*
X83072Y33562D02*
X84253D01*
X83662Y32972D02*
Y34153D01*
X84672Y76262D02*
X85853D01*
X85262Y75672D02*
Y76853D01*
X74222Y119812D02*
X75403D01*
X74812Y119222D02*
Y120403D01*
X78134Y114862D02*
X79315D01*
X78724Y114272D02*
Y115453D01*
X76192Y117311D02*
X77373D01*
X76782Y116721D02*
Y117902D01*
X88272Y132062D02*
X89453D01*
X88862Y131472D02*
Y132653D01*
X21672Y53062D02*
X22853D01*
X22262Y52472D02*
Y53653D01*
X21672Y48062D02*
X22853D01*
X22262Y47472D02*
Y48653D01*
X21672Y43062D02*
X22853D01*
X22262Y42472D02*
Y43653D01*
X16672Y53062D02*
X17853D01*
X17262Y52472D02*
Y53653D01*
X16672Y48062D02*
X17853D01*
X17262Y47472D02*
Y48653D01*
X16672Y43062D02*
X17853D01*
X17262Y42472D02*
Y43653D01*
X9428Y63062D02*
X10609D01*
X10018Y62472D02*
Y63653D01*
X9428Y58062D02*
X10609D01*
X10018Y57472D02*
Y58653D01*
X9428Y53062D02*
X10609D01*
X10018Y52472D02*
Y53653D01*
X4428Y63062D02*
X5609D01*
X5018Y62472D02*
Y63653D01*
X4428Y58062D02*
X5609D01*
X5018Y57472D02*
Y58653D01*
X4428Y53062D02*
X5609D01*
X5018Y52472D02*
Y53653D01*
X27272Y87535D02*
X28453D01*
X27862Y86944D02*
Y88125D01*
X27272Y92535D02*
X28453D01*
X27862Y91944D02*
Y93125D01*
X27272Y97535D02*
X28453D01*
X27862Y96944D02*
Y98125D01*
X27272Y102535D02*
X28453D01*
X27862Y101944D02*
Y103125D01*
X27272Y107535D02*
X28453D01*
X27862Y106944D02*
Y108125D01*
X16272Y73862D02*
X17453D01*
X16862Y73272D02*
Y74453D01*
X16272Y78862D02*
X17453D01*
X16862Y78272D02*
Y79453D01*
X16272Y83862D02*
X17453D01*
X16862Y83272D02*
Y84453D01*
X16272Y88862D02*
X17453D01*
X16862Y88272D02*
Y89453D01*
X16272Y93862D02*
X17453D01*
X16862Y93272D02*
Y94453D01*
X16272Y98862D02*
X17453D01*
X16862Y98272D02*
Y99453D01*
X16272Y103862D02*
X17453D01*
X16862Y103272D02*
Y104453D01*
X16272Y108862D02*
X17453D01*
X16862Y108272D02*
Y109453D01*
X151672Y13862D02*
X152853D01*
X152262Y13272D02*
Y14453D01*
X151672Y18862D02*
X152853D01*
X152262Y18272D02*
Y19453D01*
X151672Y23862D02*
X152853D01*
X152262Y23272D02*
Y24453D01*
X151672Y28862D02*
X152853D01*
X152262Y28272D02*
Y29453D01*
X151672Y33862D02*
X152853D01*
X152262Y33272D02*
Y34453D01*
X151672Y38862D02*
X152853D01*
X152262Y38272D02*
Y39453D01*
X123672Y117662D02*
X124853D01*
X124262Y117072D02*
Y118253D01*
X118672Y117662D02*
X119853D01*
X119262Y117072D02*
Y118253D01*
X113672Y117662D02*
X114853D01*
X114262Y117072D02*
Y118253D01*
X108672Y117662D02*
X109853D01*
X109262Y117072D02*
Y118253D01*
X18672Y172262D02*
X19853D01*
X19262Y171672D02*
Y172853D01*
X18672Y177262D02*
X19853D01*
X19262Y176672D02*
Y177853D01*
X18672Y182262D02*
X19853D01*
X19262Y181672D02*
Y182853D01*
X18672Y187262D02*
X19853D01*
X19262Y186672D02*
Y187853D01*
X130073Y107062D02*
X131255D01*
X130664Y106472D02*
Y107653D01*
X135073Y107062D02*
X136255D01*
X135664Y106472D02*
Y107653D01*
X130073Y102062D02*
X131255D01*
X130664Y101472D02*
Y102653D01*
X135073Y102062D02*
X136255D01*
X135664Y101472D02*
Y102653D01*
X130073Y97062D02*
X131255D01*
X130664Y96472D02*
Y97653D01*
X135073Y97062D02*
X136255D01*
X135664Y96472D02*
Y97653D01*
X130073Y92062D02*
X131255D01*
X130664Y91472D02*
Y92653D01*
X135073Y92062D02*
X136255D01*
X135664Y91472D02*
Y92653D01*
X48912Y130352D02*
X50093D01*
X49502Y129761D02*
Y130942D01*
X48912Y125352D02*
X50093D01*
X49502Y124761D02*
Y125942D01*
X49872Y186662D02*
X51053D01*
X50462Y186072D02*
Y187253D01*
X49872Y181662D02*
X51053D01*
X50462Y181072D02*
Y182253D01*
X44872Y186662D02*
X46053D01*
X45462Y186072D02*
Y187253D01*
X44872Y181662D02*
X46053D01*
X45462Y181072D02*
Y182253D01*
X39872Y186662D02*
X41053D01*
X40462Y186072D02*
Y187253D01*
X39872Y181662D02*
X41053D01*
X40462Y181072D02*
Y182253D01*
X34872Y186662D02*
X36053D01*
X35462Y186072D02*
Y187253D01*
X34872Y181662D02*
X36053D01*
X35462Y181072D02*
Y182253D01*
X29872Y186662D02*
X31053D01*
X30462Y186072D02*
Y187253D01*
X29872Y181662D02*
X31053D01*
X30462Y181072D02*
Y182253D01*
X96272Y155462D02*
X97453D01*
X96862Y154872D02*
Y156053D01*
X91272Y155462D02*
X92453D01*
X91862Y154872D02*
Y156053D01*
X86272Y155462D02*
X87453D01*
X86862Y154872D02*
Y156053D01*
X81272Y155462D02*
X82453D01*
X81862Y154872D02*
Y156053D01*
X76272Y155462D02*
X77453D01*
X76862Y154872D02*
Y156053D01*
X71272Y155462D02*
X72453D01*
X71862Y154872D02*
Y156053D01*
X66272Y155462D02*
X67453D01*
X66862Y154872D02*
Y156053D01*
X61272Y155462D02*
X62453D01*
X61862Y154872D02*
Y156053D01*
X96272Y160462D02*
X97453D01*
X96862Y159872D02*
Y161053D01*
X91272Y160462D02*
X92453D01*
X91862Y159872D02*
Y161053D01*
X86272Y160462D02*
X87453D01*
X86862Y159872D02*
Y161053D01*
X81272Y160462D02*
X82453D01*
X81862Y159872D02*
Y161053D01*
X76272Y160462D02*
X77453D01*
X76862Y159872D02*
Y161053D01*
X71272Y160462D02*
X72453D01*
X71862Y159872D02*
Y161053D01*
X66272Y160462D02*
X67453D01*
X66862Y159872D02*
Y161053D01*
X61272Y160462D02*
X62453D01*
X61862Y159872D02*
Y161053D01*
X96272Y165462D02*
X97453D01*
X96862Y164872D02*
Y166053D01*
X91272Y165462D02*
X92453D01*
X91862Y164872D02*
Y166053D01*
X86272Y165462D02*
X87453D01*
X86862Y164872D02*
Y166053D01*
X81272Y165462D02*
X82453D01*
X81862Y164872D02*
Y166053D01*
X76272Y165462D02*
X77453D01*
X76862Y164872D02*
Y166053D01*
X71272Y165462D02*
X72453D01*
X71862Y164872D02*
Y166053D01*
X66272Y165462D02*
X67453D01*
X66862Y164872D02*
Y166053D01*
X61272Y165462D02*
X62453D01*
X61862Y164872D02*
Y166053D01*
X96272Y170462D02*
X97453D01*
X96862Y169872D02*
Y171053D01*
X91272Y170462D02*
X92453D01*
X91862Y169872D02*
Y171053D01*
X86272Y170462D02*
X87453D01*
X86862Y169872D02*
Y171053D01*
X81272Y170462D02*
X82453D01*
X81862Y169872D02*
Y171053D01*
X76272Y170462D02*
X77453D01*
X76862Y169872D02*
Y171053D01*
X71272Y170462D02*
X72453D01*
X71862Y169872D02*
Y171053D01*
X66272Y170462D02*
X67453D01*
X66862Y169872D02*
Y171053D01*
X61272Y170462D02*
X62453D01*
X61862Y169872D02*
Y171053D01*
X96272Y175462D02*
X97453D01*
X96862Y174872D02*
Y176053D01*
X91272Y175462D02*
X92453D01*
X91862Y174872D02*
Y176053D01*
X86272Y175462D02*
X87453D01*
X86862Y174872D02*
Y176053D01*
X81272Y175462D02*
X82453D01*
X81862Y174872D02*
Y176053D01*
X76272Y175462D02*
X77453D01*
X76862Y174872D02*
Y176053D01*
X71272Y175462D02*
X72453D01*
X71862Y174872D02*
Y176053D01*
X66272Y175462D02*
X67453D01*
X66862Y174872D02*
Y176053D01*
X61272Y175462D02*
X62453D01*
X61862Y174872D02*
Y176053D01*
X96272Y180462D02*
X97453D01*
X96862Y179872D02*
Y181053D01*
X91272Y180462D02*
X92453D01*
X91862Y179872D02*
Y181053D01*
X86272Y180462D02*
X87453D01*
X86862Y179872D02*
Y181053D01*
X81272Y180462D02*
X82453D01*
X81862Y179872D02*
Y181053D01*
X76272Y180462D02*
X77453D01*
X76862Y179872D02*
Y181053D01*
X71272Y180462D02*
X72453D01*
X71862Y179872D02*
Y181053D01*
X66272Y180462D02*
X67453D01*
X66862Y179872D02*
Y181053D01*
X61272Y180462D02*
X62453D01*
X61862Y179872D02*
Y181053D01*
X96272Y185462D02*
X97453D01*
X96862Y184872D02*
Y186053D01*
X91272Y185462D02*
X92453D01*
X91862Y184872D02*
Y186053D01*
X86272Y185462D02*
X87453D01*
X86862Y184872D02*
Y186053D01*
X81272Y185462D02*
X82453D01*
X81862Y184872D02*
Y186053D01*
X76272Y185462D02*
X77453D01*
X76862Y184872D02*
Y186053D01*
X71272Y185462D02*
X72453D01*
X71862Y184872D02*
Y186053D01*
X66272Y185462D02*
X67453D01*
X66862Y184872D02*
Y186053D01*
X61272Y185462D02*
X62453D01*
X61862Y184872D02*
Y186053D01*
X96272Y190462D02*
X97453D01*
X96862Y189872D02*
Y191053D01*
X91272Y190462D02*
X92453D01*
X91862Y189872D02*
Y191053D01*
X86272Y190462D02*
X87453D01*
X86862Y189872D02*
Y191053D01*
X81272Y190462D02*
X82453D01*
X81862Y189872D02*
Y191053D01*
X76272Y190462D02*
X77453D01*
X76862Y189872D02*
Y191053D01*
X71272Y190462D02*
X72453D01*
X71862Y189872D02*
Y191053D01*
X66272Y190462D02*
X67453D01*
X66862Y189872D02*
Y191053D01*
X61272Y190462D02*
X62453D01*
X61862Y189872D02*
Y191053D01*
X69187Y105411D02*
X70368D01*
X69777Y104820D02*
Y106001D01*
X77072Y97462D02*
X78253D01*
X77662Y96872D02*
Y98053D01*
X69187Y93257D02*
X70368D01*
X69777Y92666D02*
Y93847D01*
X73112Y93282D02*
X74293D01*
X73702Y92692D02*
Y93873D01*
X69187Y89302D02*
X70368D01*
X69777Y88712D02*
Y89893D01*
X73144Y89302D02*
X74325D01*
X73734Y88712D02*
Y89893D01*
X77172Y89147D02*
X78353D01*
X77763Y88557D02*
Y89738D01*
X84904Y89208D02*
X86085D01*
X85494Y88617D02*
Y89798D01*
X80947Y89208D02*
X82128D01*
X81537Y88617D02*
Y89798D01*
X84872Y93188D02*
X86053D01*
X85462Y92598D02*
Y93779D01*
X80947Y93162D02*
X82128D01*
X81537Y92572D02*
Y93753D01*
X77172Y93282D02*
X78353D01*
X77763Y92692D02*
Y93873D01*
X80947Y97437D02*
X82128D01*
X81537Y96846D02*
Y98027D01*
X69187Y97257D02*
X70368D01*
X69777Y96666D02*
Y97847D01*
X77172Y105437D02*
X78353D01*
X77763Y104846D02*
Y106027D01*
X85011Y97361D02*
X86192D01*
X85602Y96771D02*
Y97952D01*
X73147Y97437D02*
X74328D01*
X73737Y96846D02*
Y98027D01*
X80947Y105317D02*
X82128D01*
X81537Y104726D02*
Y105907D01*
X84872Y105342D02*
X86053D01*
X85462Y104752D02*
Y105933D01*
X80947Y101362D02*
X82128D01*
X81537Y100772D02*
Y101953D01*
X84904Y101362D02*
X86085D01*
X85494Y100772D02*
Y101953D01*
X77172Y101301D02*
X78353D01*
X77763Y100711D02*
Y101892D01*
X73144Y101457D02*
X74325D01*
X73734Y100866D02*
Y102047D01*
X69187Y101457D02*
X70368D01*
X69777Y100866D02*
Y102047D01*
X73112Y105437D02*
X74293D01*
X73702Y104846D02*
Y106027D01*
X52561Y74662D02*
X53742D01*
X53151Y74072D02*
Y75253D01*
X52455Y69462D02*
X53636D01*
X53046Y68872D02*
Y70053D01*
X50072Y72225D02*
X51253D01*
X50662Y71634D02*
Y72815D01*
X50072Y67007D02*
X51253D01*
X50662Y66416D02*
Y67597D01*
X47872Y69462D02*
X49053D01*
X48462Y68872D02*
Y70053D01*
X45472Y67115D02*
X46653D01*
X46062Y66524D02*
Y67705D01*
X39767Y62862D02*
X40948D01*
X40357Y62272D02*
Y63453D01*
X62872Y72414D02*
X64053D01*
X63462Y71823D02*
Y73004D01*
X62872Y77075D02*
X64053D01*
X63462Y76485D02*
Y77666D01*
X65272Y74908D02*
X66453D01*
X65862Y74318D02*
Y75499D01*
X67472Y77217D02*
X68653D01*
X68062Y76626D02*
Y77807D01*
X69987Y75062D02*
X71168D01*
X70578Y74472D02*
Y75653D01*
X92272Y57728D02*
X93453D01*
X92862Y57138D02*
Y58319D01*
X91172Y70662D02*
X92353D01*
X91762Y70072D02*
Y71253D01*
X72600Y55562D02*
X73781D01*
X73191Y54972D02*
Y56153D01*
X75272Y53262D02*
X76453D01*
X75862Y52672D02*
Y53853D01*
X77813Y55662D02*
X78995D01*
X78404Y55072D02*
Y56253D01*
X80272Y53262D02*
X81453D01*
X80862Y52672D02*
Y53853D01*
X82672Y55662D02*
X83853D01*
X83262Y55072D02*
Y56253D01*
X74872Y47662D02*
X76053D01*
X75462Y47072D02*
Y48253D01*
X74872Y44106D02*
X76053D01*
X75462Y43516D02*
Y44697D01*
X74872Y40695D02*
X76053D01*
X75462Y40105D02*
Y41286D01*
X74872Y37295D02*
X76053D01*
X75462Y36704D02*
Y37885D01*
X72446Y33740D02*
X73627D01*
X73037Y33150D02*
Y34331D01*
X98672Y31862D02*
X99853D01*
X99262Y31272D02*
Y32453D01*
X64383Y35980D02*
X65564D01*
X64973Y35390D02*
Y36571D01*
X61012Y33740D02*
X62193D01*
X61602Y33150D02*
Y34331D01*
X57672Y35980D02*
X58853D01*
X58262Y35390D02*
Y36571D01*
X68845Y36262D02*
X70026D01*
X69435Y35672D02*
Y36853D01*
X57472Y111262D02*
X58653D01*
X58062Y110672D02*
Y111853D01*
X55072Y113262D02*
X56253D01*
X55662Y112672D02*
Y113853D01*
X31472Y140062D02*
X32653D01*
X32062Y139472D02*
Y140653D01*
X17672Y137062D02*
X18853D01*
X18262Y136472D02*
Y137653D01*
X79672Y34262D02*
X80853D01*
X80262Y33672D02*
Y34853D01*
X72272Y117262D02*
X73453D01*
X72862Y116672D02*
Y117853D01*
X80072Y127662D02*
X81253D01*
X80662Y127072D02*
Y128253D01*
X93872Y111262D02*
X95053D01*
X94462Y110672D02*
Y111853D01*
X107573Y96262D02*
X108755D01*
X108164Y95672D02*
Y96853D01*
X51359Y59272D02*
X52540D01*
X51949Y58681D02*
Y59862D01*
X36472Y60662D02*
X37653D01*
X37062Y60072D02*
Y61253D01*
X36520Y65422D02*
X37701D01*
X37110Y64831D02*
Y66012D01*
M02*
