G04*
G04 #@! TF.GenerationSoftware,Altium Limited,Altium Designer,23.1.1 (15)*
G04*
G04 Layer_Color=255*
%FSLAX25Y25*%
%MOIN*%
G70*
G04*
G04 #@! TF.SameCoordinates,03F7D1C1-C5FB-48E8-AD4B-F654CDEC49F4*
G04*
G04*
G04 #@! TF.FilePolarity,Positive*
G04*
G01*
G75*
%ADD20R,0.03347X0.02756*%
%ADD21R,0.02756X0.03347*%
%ADD22R,0.02362X0.04331*%
%ADD23R,0.02362X0.04528*%
%ADD24R,0.01181X0.04528*%
G04:AMPARAMS|DCode=25|XSize=31.5mil|YSize=32.01mil|CornerRadius=7.87mil|HoleSize=0mil|Usage=FLASHONLY|Rotation=90.000|XOffset=0mil|YOffset=0mil|HoleType=Round|Shape=RoundedRectangle|*
%AMROUNDEDRECTD25*
21,1,0.03150,0.01626,0,0,90.0*
21,1,0.01575,0.03201,0,0,90.0*
1,1,0.01575,0.00813,0.00787*
1,1,0.01575,0.00813,-0.00787*
1,1,0.01575,-0.00813,-0.00787*
1,1,0.01575,-0.00813,0.00787*
%
%ADD25ROUNDEDRECTD25*%
%ADD26R,0.11000X0.06300*%
%ADD27R,0.04724X0.08661*%
G04:AMPARAMS|DCode=28|XSize=51.18mil|YSize=66.93mil|CornerRadius=12.8mil|HoleSize=0mil|Usage=FLASHONLY|Rotation=270.000|XOffset=0mil|YOffset=0mil|HoleType=Round|Shape=RoundedRectangle|*
%AMROUNDEDRECTD28*
21,1,0.05118,0.04134,0,0,270.0*
21,1,0.02559,0.06693,0,0,270.0*
1,1,0.02559,-0.02067,-0.01280*
1,1,0.02559,-0.02067,0.01280*
1,1,0.02559,0.02067,0.01280*
1,1,0.02559,0.02067,-0.01280*
%
%ADD28ROUNDEDRECTD28*%
G04:AMPARAMS|DCode=29|XSize=31.5mil|YSize=32.01mil|CornerRadius=7.87mil|HoleSize=0mil|Usage=FLASHONLY|Rotation=0.000|XOffset=0mil|YOffset=0mil|HoleType=Round|Shape=RoundedRectangle|*
%AMROUNDEDRECTD29*
21,1,0.03150,0.01626,0,0,0.0*
21,1,0.01575,0.03201,0,0,0.0*
1,1,0.01575,0.00787,-0.00813*
1,1,0.01575,-0.00787,-0.00813*
1,1,0.01575,-0.00787,0.00813*
1,1,0.01575,0.00787,0.00813*
%
%ADD29ROUNDEDRECTD29*%
%ADD30R,0.03543X0.01968*%
%ADD31R,0.05906X0.04724*%
%ADD32R,0.02165X0.03937*%
G04:AMPARAMS|DCode=33|XSize=51.18mil|YSize=66.93mil|CornerRadius=12.8mil|HoleSize=0mil|Usage=FLASHONLY|Rotation=180.000|XOffset=0mil|YOffset=0mil|HoleType=Round|Shape=RoundedRectangle|*
%AMROUNDEDRECTD33*
21,1,0.05118,0.04134,0,0,180.0*
21,1,0.02559,0.06693,0,0,180.0*
1,1,0.02559,-0.01280,0.02067*
1,1,0.02559,0.01280,0.02067*
1,1,0.02559,0.01280,-0.02067*
1,1,0.02559,-0.01280,-0.02067*
%
%ADD33ROUNDEDRECTD33*%
%ADD34R,0.01988X0.01181*%
%ADD35R,0.02760X0.02360*%
%ADD36O,0.03540X0.01100*%
%ADD37R,0.21650X0.21650*%
%ADD38O,0.01100X0.03540*%
%ADD39R,0.03543X0.07480*%
%ADD40R,0.06000X0.03500*%
%ADD76C,0.02559*%
%ADD77O,0.03937X0.07087*%
%ADD78O,0.03937X0.08268*%
%ADD79C,0.03937*%
%ADD80C,0.07090*%
%ADD81R,0.03940X0.03940*%
%ADD82C,0.03940*%
%ADD83C,0.03937*%
%ADD84R,0.03937X0.03937*%
D20*
X129662Y81316D02*
D03*
Y87812D02*
D03*
X140662Y81611D02*
D03*
Y75115D02*
D03*
D21*
X134650Y56744D02*
D03*
X128154D02*
D03*
X122510D02*
D03*
X116014D02*
D03*
D22*
X131402Y64147D02*
D03*
X127662D02*
D03*
X123922D02*
D03*
Y74777D02*
D03*
X127662D02*
D03*
X131402D02*
D03*
X147402Y66981D02*
D03*
X143662D02*
D03*
X139922D02*
D03*
Y56744D02*
D03*
X147402D02*
D03*
D23*
X66286Y28494D02*
D03*
X69435D02*
D03*
X91483D02*
D03*
X88333D02*
D03*
D24*
X85774D02*
D03*
X83805D02*
D03*
X81837D02*
D03*
X79868D02*
D03*
X77900D02*
D03*
X75931D02*
D03*
X73963D02*
D03*
X71994D02*
D03*
D25*
X50462Y35409D02*
D03*
Y28716D02*
D03*
X57837Y86409D02*
D03*
Y79716D02*
D03*
X42006Y77809D02*
D03*
Y71116D02*
D03*
X63062Y68109D02*
D03*
Y61416D02*
D03*
X88062Y69209D02*
D03*
Y62516D02*
D03*
X88862Y48009D02*
D03*
Y41316D02*
D03*
X102862Y28316D02*
D03*
Y35009D02*
D03*
X108164Y28316D02*
D03*
Y35009D02*
D03*
X108262Y59409D02*
D03*
Y52716D02*
D03*
X99262Y59516D02*
D03*
Y66209D02*
D03*
X128462Y156116D02*
D03*
Y162809D02*
D03*
X123662Y162709D02*
D03*
Y156016D02*
D03*
X45062Y151209D02*
D03*
Y144516D02*
D03*
D26*
X52662Y59985D02*
D03*
Y43485D02*
D03*
D27*
X68577Y43462D02*
D03*
X83262D02*
D03*
D28*
X40062Y43445D02*
D03*
Y54862D02*
D03*
X32062Y43645D02*
D03*
Y55062D02*
D03*
D29*
X33009Y60662D02*
D03*
X26316D02*
D03*
X26316Y65462D02*
D03*
X33009D02*
D03*
X98897Y83462D02*
D03*
X105590D02*
D03*
X104609Y104862D02*
D03*
X97916D02*
D03*
X91716Y115662D02*
D03*
X98409D02*
D03*
X33524Y150662D02*
D03*
X40216D02*
D03*
X40209Y145062D02*
D03*
X33516D02*
D03*
X43622Y170788D02*
D03*
X36929D02*
D03*
X43622Y176333D02*
D03*
X36929D02*
D03*
X66209Y116262D02*
D03*
X59516D02*
D03*
X82778Y76262D02*
D03*
X89471D02*
D03*
D30*
X36780Y78202D02*
D03*
Y70722D02*
D03*
X26544D02*
D03*
Y74462D02*
D03*
Y78202D02*
D03*
X43664Y164402D02*
D03*
Y156922D02*
D03*
X33428D02*
D03*
Y160662D02*
D03*
Y164402D02*
D03*
D31*
X70062Y61262D02*
D03*
X81062D02*
D03*
Y69262D02*
D03*
X70062D02*
D03*
D32*
X102803Y52975D02*
D03*
X99063D02*
D03*
X95323D02*
D03*
Y41950D02*
D03*
X99063D02*
D03*
X102803D02*
D03*
D33*
X105675Y65422D02*
D03*
X117092D02*
D03*
D34*
X19745Y204215D02*
D03*
Y202246D02*
D03*
Y200278D02*
D03*
Y198309D02*
D03*
X16379Y204215D02*
D03*
Y202246D02*
D03*
Y200278D02*
D03*
Y198309D02*
D03*
D35*
X4892Y204422D02*
D03*
X8832D02*
D03*
X4892Y198902D02*
D03*
X8832D02*
D03*
D36*
X64182Y98242D02*
D03*
Y96282D02*
D03*
Y94312D02*
D03*
Y86432D02*
D03*
Y88402D02*
D03*
Y90372D02*
D03*
Y92342D02*
D03*
Y100212D02*
D03*
Y102182D02*
D03*
Y104152D02*
D03*
Y106122D02*
D03*
Y108092D02*
D03*
X91342D02*
D03*
Y106122D02*
D03*
Y104152D02*
D03*
Y102182D02*
D03*
Y100212D02*
D03*
Y98242D02*
D03*
Y96282D02*
D03*
Y94312D02*
D03*
Y92342D02*
D03*
Y90372D02*
D03*
Y88402D02*
D03*
Y86432D02*
D03*
D37*
X77762Y97262D02*
D03*
D38*
X66932Y110842D02*
D03*
X68902D02*
D03*
X70872D02*
D03*
X72842D02*
D03*
X74812D02*
D03*
X76782D02*
D03*
X78742D02*
D03*
X80712D02*
D03*
X82682D02*
D03*
X84652D02*
D03*
X86622D02*
D03*
X88592D02*
D03*
Y83682D02*
D03*
X86622D02*
D03*
X84652D02*
D03*
X82682D02*
D03*
X80712D02*
D03*
X78742D02*
D03*
X76782D02*
D03*
X74812D02*
D03*
X72842D02*
D03*
X70872D02*
D03*
X68902D02*
D03*
X66932D02*
D03*
D39*
X61462Y143062D02*
D03*
X66462D02*
D03*
X71462D02*
D03*
X76462D02*
D03*
X81462D02*
D03*
X86462D02*
D03*
X91462D02*
D03*
X96462D02*
D03*
D40*
X152062Y156062D02*
D03*
X135062D02*
D03*
X152062Y164062D02*
D03*
X135062D02*
D03*
D76*
X90262Y24262D02*
D03*
X67506D02*
D03*
D77*
X95892Y9893D02*
D03*
X61876Y9893D02*
D03*
D78*
X95893Y26231D02*
D03*
X61877Y26230D02*
D03*
D79*
X65872Y128375D02*
D03*
X60872D02*
D03*
X55872D02*
D03*
X70872D02*
D03*
D80*
X127662Y7062D02*
D03*
Y17062D02*
D03*
Y27062D02*
D03*
Y37062D02*
D03*
Y47062D02*
D03*
D81*
X36870Y107762D02*
D03*
X115562D02*
D03*
D82*
X41870D02*
D03*
X36870Y102762D02*
D03*
X41870D02*
D03*
X36870Y97762D02*
D03*
X41870D02*
D03*
X36870Y92762D02*
D03*
X41870D02*
D03*
X36870Y87762D02*
D03*
X41870D02*
D03*
X120562Y107762D02*
D03*
X115562Y102762D02*
D03*
X120562D02*
D03*
X115562Y97762D02*
D03*
X120562D02*
D03*
X115562Y92762D02*
D03*
X120562D02*
D03*
X115562Y87762D02*
D03*
X120562D02*
D03*
D83*
X19462Y166462D02*
D03*
Y161462D02*
D03*
Y156462D02*
D03*
D84*
Y151462D02*
D03*
M02*
