G04*
G04 #@! TF.GenerationSoftware,Altium Limited,Altium Designer,23.1.1 (15)*
G04*
G04 Layer_Color=16711935*
%FSLAX25Y25*%
%MOIN*%
G70*
G04*
G04 #@! TF.SameCoordinates,03F7D1C1-C5FB-48E8-AD4B-F654CDEC49F4*
G04*
G04*
G04 #@! TF.FilePolarity,Negative*
G04*
G01*
G75*
%ADD63C,0.03359*%
%ADD64O,0.04737X0.07887*%
%ADD65O,0.04737X0.09068*%
%ADD66C,0.04737*%
%ADD67C,0.07490*%
%ADD68R,0.04340X0.04340*%
%ADD69C,0.04340*%
%ADD70C,0.04337*%
%ADD71R,0.04337X0.04337*%
%ADD72C,0.02769*%
D63*
X90262Y24262D02*
D03*
X67506D02*
D03*
D64*
X95892Y9893D02*
D03*
X61876Y9893D02*
D03*
D65*
X95893Y26231D02*
D03*
X61877Y26230D02*
D03*
D66*
X65872Y128375D02*
D03*
X60872D02*
D03*
X55872D02*
D03*
X70872D02*
D03*
D67*
X127662Y7062D02*
D03*
Y17062D02*
D03*
Y27062D02*
D03*
Y37062D02*
D03*
Y47062D02*
D03*
D68*
X36870Y107762D02*
D03*
X115562D02*
D03*
D69*
X41870D02*
D03*
X36870Y102762D02*
D03*
X41870D02*
D03*
X36870Y97762D02*
D03*
X41870D02*
D03*
X36870Y92762D02*
D03*
X41870D02*
D03*
X36870Y87762D02*
D03*
X41870D02*
D03*
X120562Y107762D02*
D03*
X115562Y102762D02*
D03*
X120562D02*
D03*
X115562Y97762D02*
D03*
X120562D02*
D03*
X115562Y92762D02*
D03*
X120562D02*
D03*
X115562Y87762D02*
D03*
X120562D02*
D03*
D70*
X19462Y166462D02*
D03*
Y161462D02*
D03*
Y156462D02*
D03*
D71*
Y151462D02*
D03*
D72*
X105151Y100212D02*
D03*
X102147Y98242D02*
D03*
X135664Y69462D02*
D03*
X134183Y87812D02*
D03*
X119250Y82297D02*
D03*
X144062Y59662D02*
D03*
X112205Y60662D02*
D03*
X134262D02*
D03*
X111492Y72225D02*
D03*
X92862Y73594D02*
D03*
X99862Y75862D02*
D03*
X96662Y73862D02*
D03*
X102243Y112062D02*
D03*
X66062Y120412D02*
D03*
X62062Y135433D02*
D03*
X57062D02*
D03*
X68817Y134262D02*
D03*
X78973Y78363D02*
D03*
X90882Y80862D02*
D03*
X94468Y83497D02*
D03*
X59662Y94262D02*
D03*
X91262Y134438D02*
D03*
X86662Y134262D02*
D03*
X71462Y136262D02*
D03*
X102662Y83462D02*
D03*
X76849Y124941D02*
D03*
X42167Y117160D02*
D03*
X42462Y113132D02*
D03*
X39262Y115062D02*
D03*
X95323Y61416D02*
D03*
X52662Y89666D02*
D03*
X49502Y92662D02*
D03*
X46036Y90462D02*
D03*
X46116Y95382D02*
D03*
X83662Y33562D02*
D03*
X85262Y76262D02*
D03*
X74812Y119812D02*
D03*
X78724Y114862D02*
D03*
X76782Y117311D02*
D03*
X88862Y132062D02*
D03*
X22262Y53062D02*
D03*
Y48062D02*
D03*
Y43062D02*
D03*
X17262Y53062D02*
D03*
Y48062D02*
D03*
Y43062D02*
D03*
X10018Y63062D02*
D03*
Y58062D02*
D03*
Y53062D02*
D03*
X5018Y63062D02*
D03*
Y58062D02*
D03*
Y53062D02*
D03*
X27862Y87535D02*
D03*
Y92535D02*
D03*
Y97535D02*
D03*
Y102535D02*
D03*
Y107535D02*
D03*
X16862Y73862D02*
D03*
Y78862D02*
D03*
Y83862D02*
D03*
Y88862D02*
D03*
Y93862D02*
D03*
Y98862D02*
D03*
Y103862D02*
D03*
Y108862D02*
D03*
X152262Y13862D02*
D03*
Y18862D02*
D03*
Y23862D02*
D03*
Y28862D02*
D03*
Y33862D02*
D03*
Y38862D02*
D03*
X124262Y117662D02*
D03*
X119262D02*
D03*
X114262D02*
D03*
X109262D02*
D03*
X19262Y172262D02*
D03*
Y177262D02*
D03*
Y182262D02*
D03*
Y187262D02*
D03*
X130664Y107062D02*
D03*
X135664D02*
D03*
X130664Y102062D02*
D03*
X135664D02*
D03*
X130664Y97062D02*
D03*
X135664D02*
D03*
X130664Y92062D02*
D03*
X135664D02*
D03*
X49502Y130352D02*
D03*
Y125352D02*
D03*
X50462Y186662D02*
D03*
Y181662D02*
D03*
X45462Y186662D02*
D03*
Y181662D02*
D03*
X40462Y186662D02*
D03*
Y181662D02*
D03*
X35462Y186662D02*
D03*
Y181662D02*
D03*
X30462Y186662D02*
D03*
Y181662D02*
D03*
X96862Y155462D02*
D03*
X91862D02*
D03*
X86862D02*
D03*
X81862D02*
D03*
X76862D02*
D03*
X71862D02*
D03*
X66862D02*
D03*
X61862D02*
D03*
X96862Y160462D02*
D03*
X91862D02*
D03*
X86862D02*
D03*
X81862D02*
D03*
X76862D02*
D03*
X71862D02*
D03*
X66862D02*
D03*
X61862D02*
D03*
X96862Y165462D02*
D03*
X91862D02*
D03*
X86862D02*
D03*
X81862D02*
D03*
X76862D02*
D03*
X71862D02*
D03*
X66862D02*
D03*
X61862D02*
D03*
X96862Y170462D02*
D03*
X91862D02*
D03*
X86862D02*
D03*
X81862D02*
D03*
X76862D02*
D03*
X71862D02*
D03*
X66862D02*
D03*
X61862D02*
D03*
X96862Y175462D02*
D03*
X91862D02*
D03*
X86862D02*
D03*
X81862D02*
D03*
X76862D02*
D03*
X71862D02*
D03*
X66862D02*
D03*
X61862D02*
D03*
X96862Y180462D02*
D03*
X91862D02*
D03*
X86862D02*
D03*
X81862D02*
D03*
X76862D02*
D03*
X71862D02*
D03*
X66862D02*
D03*
X61862D02*
D03*
X96862Y185462D02*
D03*
X91862D02*
D03*
X86862D02*
D03*
X81862D02*
D03*
X76862D02*
D03*
X71862D02*
D03*
X66862D02*
D03*
X61862D02*
D03*
X96862Y190462D02*
D03*
X91862D02*
D03*
X86862D02*
D03*
X81862D02*
D03*
X76862D02*
D03*
X71862D02*
D03*
X66862D02*
D03*
X61862D02*
D03*
X69777Y105411D02*
D03*
X77662Y97462D02*
D03*
X69777Y93257D02*
D03*
X73702Y93282D02*
D03*
X69777Y89302D02*
D03*
X73734D02*
D03*
X77763Y89147D02*
D03*
X85494Y89208D02*
D03*
X81537D02*
D03*
X85462Y93188D02*
D03*
X81537Y93162D02*
D03*
X77763Y93282D02*
D03*
X81537Y97437D02*
D03*
X69777Y97257D02*
D03*
X77763Y105437D02*
D03*
X85602Y97361D02*
D03*
X73737Y97437D02*
D03*
X81537Y105317D02*
D03*
X85462Y105342D02*
D03*
X81537Y101362D02*
D03*
X85494D02*
D03*
X77763Y101301D02*
D03*
X73734Y101457D02*
D03*
X69777D02*
D03*
X73702Y105437D02*
D03*
X53151Y74662D02*
D03*
X53046Y69462D02*
D03*
X50662Y72225D02*
D03*
Y67007D02*
D03*
X48462Y69462D02*
D03*
X46062Y67115D02*
D03*
X40357Y62862D02*
D03*
X63462Y72414D02*
D03*
Y77075D02*
D03*
X65862Y74908D02*
D03*
X68062Y77217D02*
D03*
X70578Y75062D02*
D03*
X92862Y57728D02*
D03*
X91762Y70662D02*
D03*
X73191Y55562D02*
D03*
X75862Y53262D02*
D03*
X78404Y55662D02*
D03*
X80862Y53262D02*
D03*
X83262Y55662D02*
D03*
X75462Y47662D02*
D03*
Y44106D02*
D03*
Y40695D02*
D03*
Y37295D02*
D03*
X73037Y33740D02*
D03*
X99262Y31862D02*
D03*
X64973Y35980D02*
D03*
X61602Y33740D02*
D03*
X58262Y35980D02*
D03*
X69435Y36262D02*
D03*
X58062Y111262D02*
D03*
X55662Y113262D02*
D03*
X32062Y140062D02*
D03*
X18262Y137062D02*
D03*
X80262Y34262D02*
D03*
X72862Y117262D02*
D03*
X80662Y127662D02*
D03*
X94462Y111262D02*
D03*
X108164Y96262D02*
D03*
X51949Y59272D02*
D03*
X37062Y60662D02*
D03*
X37110Y65422D02*
D03*
M02*
