M48
;Layer_Color=9474304
;FILE_FORMAT=4:4
METRIC,LZ
;TYPE=PLATED
T1F00S00C0.3000
T2F00S00C0.6000
T4F00S00C0.6500
T5F00S00C0.6502
T6F00S00C1.1989
;TYPE=NON_PLATED
T7F00S00C0.6500
%
T01
X00043847Y00109378
X00056547
X00147986Y0009139
X0015647Y00085701
X00165032Y0009139
X00176366Y00092107
X00185514Y00085701
X00191674Y00094728
Y00103366
Y0011203
X00203867Y00087027
X00212502Y00085248
X00252127Y00080931
X00386746Y00086011
Y0007331
Y0006061
Y0004791
Y0003521
Y0009871
X00365919Y00151543
X00341026Y00154082
X00344587Y00176434
X00340825Y00223042
X00344587Y00233839
Y00246539
Y00259238
Y00271938
X00331887
Y00259238
Y00246539
Y00233839
X00302895Y00209034
X00260761Y00211994
X00239949Y00212082
X0023084Y0020539
X0023587Y0018693
X00233076Y00179482
X00245522Y0018761
X0025365Y00192691
X00216567Y00193706
X00200592Y00199042
X00179267Y00190658
X00172878Y00196131
X0016729Y00190266
X00161194Y00195772
Y0018393
X00135004Y00189643
X00128682Y00183451
X00123095Y00176434
X00134737
X00128682Y00170198
X00116999Y00170471
X00102508Y0015967
X00094138Y00154082
X0009426Y00166171
X00131951Y0015055
X00185905Y00141129
X00192691Y00135287
X00199146Y00141383
X0020539Y00135287
X00211486Y00141383
X0023587Y00146629
X0024212Y00155997
X00285Y00154082
X00283191Y00183451
X00274737Y00244506
X00267083Y0025454
X00259452Y00249536
X00259698Y00284639
X00239935Y00282607
X00217075Y0026757
X00207105Y00267504
X00197517Y00267809
X00187204
X00177234Y00267744
Y002577
X00187285
X00187293Y00247489
X00197262Y00247554
X00207105Y00247489
Y0025746
X00197517Y00257306
X00217155Y0025746
X00217428Y00247298
X00217075Y00236698
X00207105Y00236632
X00197517Y00236937
X00187204
X00177234Y00236872
Y00226828
X00187285
X00197517Y00226434
X00207105Y00226588
X00217155
X00177234Y00247032
X00151543Y00239426
X00133763Y0022775
X00125736Y00235362
X0011693Y00229774
X00117136Y00242271
X00070771Y00247738
Y00235038
Y00222338
X00042831Y00225711
Y00213011
Y0020031
Y0018761
X00025447Y00160179
Y00147479
Y00134778
X00012747
Y00147479
Y00160179
X00043847Y00134778
X00056547
Y00122079
X00043847
X00042831Y0023841
Y0025111
Y00263811
Y00276511
X00070771Y00273138
Y00260438
X00099726Y00292258
X00107105Y00297588
X00107854Y00287356
X00141383Y00287687
X00147479Y00282607
X00167799Y00305847
X00190023Y00304324
X00195027Y00297971
X0018507Y00297847
X0019996Y00291751
X00195195Y00317349
X00204883Y00324263
X00220123Y00341026
X00225711Y00335438
X00231807Y00341472
X00181514Y00346106
X00174796Y00341026
X00157639Y00344
X00144938
X00125736Y00331093
Y00318393
X00081439Y00355759
X00046386Y00348139
X00048927Y00437547
Y00450247
Y00462947
Y00475647
X00077375Y00474123
X00090075
X00102774
X00115475
X00128174
Y00461423
X00115475
X00102774
X00090075
X00077375
X0015713Y00458374
Y00445675
Y00432975
Y00420275
Y00407575
Y00394874
X0016983
X0018253
X00195231
X00207931
X0022063
X0023333
X00246031
Y00407575
X0023333
X0022063
X00207931
X00195231
X0018253
X0016983
Y00420275
X0018253
X00195231
X00207931
X0022063
X0023333
X00246031
Y00432975
X0023333
X0022063
X00207931
X00195231
X0018253
X0016983
Y00445675
X0018253
X00195231
X00207931
X0022063
X0023333
X00246031
Y00458374
X0023333
X0022063
X00207931
X00195231
X0018253
X0016983
Y00471074
X0018253
X00195231
X00207931
X0022063
X0023333
X00246031
Y00483774
X0023333
X0022063
X00207931
X00195231
X0018253
X0016983
X0015713
Y00471074
X00277526Y00298862
X00290226
X00302927
X00315627
X00191674Y00121062
T02
X00049434Y00384715
Y00397415
Y00410115
Y00422814
T04
X00141916Y00326074
X00154616
X00167316
X00180016
T05
X0009365Y00222917
Y00235616
Y00248316
Y00261017
Y00273717
X0010635
Y00261017
Y00248316
Y00235616
Y00222917
X00293528
Y00235616
Y00248316
Y00261017
Y00273717
X00306229
Y00261017
Y00248316
Y00235616
Y00222917
T06
X00324263Y00017938
Y00043338
Y00068738
Y00094138
Y00119538
T07
X00171466Y00061627
X00229266
M30
